<?xml version="1.0" encoding="iso-8859-1"?>
<svg version="1.1" id="Capa_1" xmlns="http://www.w3.org/2000/svg" xmlns:xlink="http://www.w3.org/1999/xlink" x="0px" y="0px"
	 viewBox="0 0 675 157" >
       <path d="M156.368 78.1848C156.368 121.365 121.364 156.37 78.1842 156.37C35.0043 156.37 0 121.365 0 78.1848C0 35.0045 35.0043 0 78.1842 0C121.364 0 156.368 35.0045 156.368 78.1848Z" fill="#00F2FF"></path>
        <path fill-rule="evenodd" clip-rule="evenodd" d="M74.8237 98.2053C60.8276 103.732 45.2765 95.8328 40.3624 80.5702C35.4482 65.3077 42.835 48.8819 56.8154 43.6924C61.2158 42.1311 65.9508 41.7145 70.5626 42.483C63.6308 39.8868 55.9719 39.8868 49.0399 42.483C31.7004 48.8972 22.4009 69.3339 28.4969 88.1631C34.5929 106.992 53.8918 116.866 71.2625 109.932C86.1602 103.992 94.589 87.7194 92.5829 71.4925C92.4585 70.4974 92.3185 69.5788 92.2408 69.1654C93.0494 81.5959 86.2538 93.6742 74.8237 98.2053Z" fill="#222222"></path>
        <path fill-rule="evenodd" clip-rule="evenodd" d="M79.536 56.2216C93.7155 50.2677 109.597 57.3603 115.237 72.4531C121.035 87.9771 113.835 106.024 98.962 112.363C94.2823 114.296 89.159 114.976 84.1207 114.332C91.7157 116.933 100.042 116.597 107.391 113.393C125.762 105.562 134.459 83.3307 127.101 64.3453C119.995 45.9905 100.427 37.4517 83.1439 44.7289C68.0816 51.0677 58.5341 68.3299 61.8269 83.7153C62.0475 84.7154 61.7166 83.4536 61.8269 83.8845C61.1179 71.0224 67.751 61.1604 79.536 56.2216Z" fill="#222222"></path>
        <path fill-rule="evenodd" clip-rule="evenodd" d="M65.1912 89.7334C64.5657 89.9579 63.8984 89.8368 63.3418 89.3983C62.7851 88.9595 62.3865 88.2407 62.237 87.406L61.3803 82.9071C61.0457 81.1256 61.8255 79.31 63.1528 78.7801L82.517 71.4647C83.1399 71.251 83.8014 71.3742 84.3555 71.8071C84.9099 72.2404 85.311 72.9476 85.4711 73.773L86.3426 78.213C86.7054 79.9814 85.9394 81.811 84.6144 82.34L65.1912 89.7334Z" fill="#222222"></path>
        <path d="M246.225 41.8724H232.05C231.791 40.0092 231.262 38.3542 230.464 36.9075C229.666 35.4389 228.641 34.1894 227.389 33.1592C226.138 32.1289 224.692 31.3398 223.052 30.7918C221.434 30.2438 219.676 29.9698 217.777 29.9698C214.347 29.9698 211.358 30.8356 208.812 32.5673C206.266 34.2771 204.292 36.776 202.89 40.064C201.487 43.3301 200.786 47.2976 200.786 51.9666C200.786 56.7671 201.487 60.8004 202.89 64.0665C204.314 67.3326 206.299 69.7986 208.845 71.4645C211.391 73.1304 214.336 73.9634 217.68 73.9634C219.557 73.9634 221.294 73.7113 222.891 73.2072C224.509 72.703 225.944 71.9687 227.195 71.0042C228.447 70.0178 229.482 68.8232 230.302 67.4203C231.144 66.0174 231.726 64.4172 232.05 62.6198L246.225 62.6855C245.858 65.7762 244.941 68.7574 243.474 71.6289C242.029 74.4785 240.076 77.0322 237.616 79.29C235.178 81.5258 232.265 83.3014 228.878 84.6166C225.512 85.9098 221.704 86.5565 217.454 86.5565C211.542 86.5565 206.256 85.1974 201.595 82.4793C196.956 79.7612 193.288 75.8266 190.591 70.6754C187.916 65.5242 186.578 59.2879 186.578 51.9666C186.578 44.6234 187.937 38.3761 190.656 33.2249C193.375 28.0737 197.064 24.15 201.725 21.4538C206.385 18.7357 211.628 17.3767 217.454 17.3767C221.294 17.3767 224.854 17.9247 228.134 19.0207C231.435 20.1167 234.358 21.7169 236.904 23.8212C239.45 25.9036 241.522 28.4573 243.118 31.4823C244.736 34.5073 245.772 37.9706 246.225 41.8724Z" fill="black"></path>
        <path d="M270.191 86.5894C267.019 86.5894 264.193 86.0304 261.711 84.9125C259.23 83.7726 257.267 82.0958 255.821 79.8818C254.397 77.646 253.685 74.8622 253.685 71.5303C253.685 68.7245 254.192 66.3681 255.206 64.4611C256.22 62.554 257.601 61.0196 259.349 59.8578C261.097 58.6961 263.082 57.8193 265.304 57.2274C267.548 56.6356 269.9 56.2191 272.359 55.9779C275.25 55.6711 277.581 55.3861 279.35 55.1231C281.119 54.8381 282.403 54.4217 283.201 53.8737C284 53.3257 284.399 52.5146 284.399 51.4405V51.2432C284.399 49.1608 283.751 47.5497 282.457 46.4098C281.184 45.27 279.371 44.7001 277.02 44.7001C274.538 44.7001 272.564 45.2591 271.097 46.377C269.63 47.473 268.659 48.8539 268.184 50.5199L255.433 49.4677C256.08 46.3989 257.353 43.7466 259.252 41.5107C261.15 39.253 263.599 37.5212 266.598 36.3156C269.619 35.0881 273.114 34.4744 277.084 34.4744C279.846 34.4744 282.489 34.8032 285.014 35.4608C287.56 36.1184 289.814 37.1376 291.778 38.5186C293.763 39.8996 295.327 41.6751 296.471 43.8452C297.614 45.9934 298.186 48.569 298.186 51.572V85.6358H285.111V78.6324H284.722C283.924 80.2106 282.856 81.6026 281.518 82.8082C280.181 83.9919 278.573 84.9234 276.696 85.603C274.819 86.2606 272.651 86.5894 270.191 86.5894ZM274.139 76.9226C276.167 76.9226 277.958 76.5171 279.512 75.706C281.065 74.8731 282.284 73.7552 283.169 72.3523C284.053 70.9494 284.496 69.3602 284.496 67.5847V62.2252C284.064 62.5102 283.471 62.7732 282.716 63.0143C281.982 63.2335 281.152 63.4418 280.224 63.6391C279.296 63.8144 278.368 63.9788 277.44 64.1323C276.513 64.2638 275.671 64.3843 274.916 64.4939C273.298 64.7351 271.885 65.1187 270.676 65.6447C269.468 66.1708 268.529 66.8832 267.861 67.7819C267.192 68.6587 266.857 69.7547 266.857 71.0699C266.857 72.977 267.537 74.4347 268.896 75.443C270.277 76.4294 272.025 76.9226 274.139 76.9226Z" fill="black"></path>
        <path d="M350.244 49.5335L337.622 50.3226C337.406 49.2266 336.942 48.2402 336.23 47.3634C335.518 46.4647 334.579 45.7522 333.414 45.2262C332.271 44.6782 330.901 44.4042 329.304 44.4042C327.168 44.4042 325.366 44.8645 323.899 45.7851C322.432 46.6839 321.698 47.8895 321.698 49.402C321.698 50.6076 322.173 51.6268 323.122 52.4598C324.072 53.2928 325.701 53.9613 328.009 54.4655L337.007 56.3068C341.84 57.3151 345.443 58.9372 347.816 61.173C350.19 63.4089 351.376 66.3461 351.376 69.9849C351.376 73.2948 350.416 76.1993 348.496 78.6982C346.597 81.197 343.986 83.1479 340.664 84.5508C337.363 85.9317 333.554 86.6222 329.239 86.6222C322.659 86.6222 317.415 85.2303 313.51 82.4465C309.627 79.6407 307.35 75.8266 306.681 71.0042L320.242 70.2808C320.652 72.3194 321.644 73.8757 323.219 74.9498C324.795 76.0019 326.812 76.528 329.272 76.528C331.688 76.528 333.63 76.0568 335.097 75.1142C336.586 74.1497 337.341 72.9112 337.363 71.3987C337.341 70.1274 336.812 69.0862 335.777 68.2752C334.741 67.4422 333.144 66.8065 330.987 66.3681L322.378 64.6255C317.523 63.639 313.909 61.9293 311.536 59.4962C309.184 57.063 308.008 53.9613 308.008 50.1911C308.008 46.9469 308.871 44.1521 310.597 41.8066C312.345 39.4612 314.794 37.6528 317.944 36.3814C321.116 35.1101 324.827 34.4744 329.077 34.4744C335.356 34.4744 340.297 35.8224 343.9 38.5186C347.525 41.2148 349.639 44.8864 350.244 49.5335Z" fill="black"></path>
        <path d="M382.713 86.6222C377.599 86.6222 373.198 85.5701 369.508 83.4658C365.84 81.3395 363.014 78.3364 361.029 74.4566C359.044 70.5548 358.051 65.9406 358.051 60.6141C358.051 55.419 359.044 50.8596 361.029 46.9359C363.014 43.0122 365.808 39.9544 369.411 37.7624C373.036 35.5704 377.286 34.4744 382.163 34.4744C385.442 34.4744 388.495 35.0114 391.322 36.0855C394.17 37.1377 396.651 38.7269 398.765 40.8531C400.901 42.9794 402.563 45.6536 403.75 48.8759C404.936 52.0762 405.53 55.8245 405.53 60.1209V63.9679H363.553V55.2875H392.552C392.552 53.2708 392.12 51.4844 391.257 49.928C390.394 48.3717 389.196 47.1551 387.665 46.2783C386.154 45.3796 384.396 44.9303 382.389 44.9303C380.296 44.9303 378.441 45.4234 376.823 46.4098C375.226 47.3743 373.975 48.6786 373.068 50.3226C372.162 51.9447 371.698 53.7531 371.677 55.7478V64.0007C371.677 66.4996 372.13 68.6588 373.036 70.4781C373.964 72.2975 375.269 73.7004 376.952 74.6868C378.635 75.6732 380.631 76.1663 382.939 76.1663C384.471 76.1663 385.874 75.9472 387.147 75.5088C388.42 75.0704 389.509 74.4128 390.415 73.536C391.322 72.6592 392.012 71.5851 392.487 70.3137L405.238 71.1686C404.591 74.2813 403.264 76.9993 401.257 79.3229C399.272 81.6245 396.705 83.4219 393.555 84.7152C390.426 85.9865 386.812 86.6222 382.713 86.6222Z" fill="black"></path>
        <path d="M458.736 40.064C458.283 38.4638 457.647 37.05 456.827 35.8224C456.007 34.573 455.003 33.5209 453.817 32.666C452.652 31.7892 451.314 31.1206 449.804 30.6603C448.315 30.1999 446.664 29.9698 444.852 29.9698C441.465 29.9698 438.487 30.8247 435.919 32.5344C433.373 34.2442 431.388 36.7322 429.964 39.9982C428.54 43.2424 427.828 47.2099 427.828 51.9008C427.828 56.5917 428.53 60.5812 429.932 63.8692C431.335 67.1572 433.32 69.6671 435.887 71.3987C438.455 73.1085 441.486 73.9634 444.981 73.9634C448.153 73.9634 450.861 73.3935 453.105 72.2536C455.37 71.0919 457.096 69.4588 458.283 67.3545C459.491 65.2502 460.095 62.7623 460.095 59.8907L462.943 60.3181H445.855V49.5992H473.591V58.0823C473.591 64.0007 472.361 69.0862 469.902 73.3387C467.442 77.5693 464.055 80.8354 459.739 83.137C455.424 85.4167 450.483 86.5565 444.917 86.5565C438.703 86.5565 433.244 85.1646 428.54 82.3807C423.837 79.5749 420.169 75.5965 417.537 70.4452C414.926 65.2721 413.621 59.1344 413.621 52.0323C413.621 46.5742 414.397 41.708 415.951 37.4336C417.526 33.1373 419.727 29.4985 422.553 26.5174C425.38 23.5363 428.67 21.2675 432.424 19.7112C436.178 18.1549 440.245 17.3767 444.625 17.3767C448.38 17.3767 451.875 17.9357 455.111 19.0536C458.348 20.1496 461.217 21.7059 463.72 23.7226C466.245 25.7392 468.305 28.1395 469.902 30.9233C471.498 33.6853 472.523 36.7321 472.976 40.064H458.736Z" fill="black"></path>
        <path d="M515.737 64.1323V35.132H529.525V85.6358H516.288V76.4623H515.77C514.648 79.4215 512.781 81.7998 510.171 83.5973C507.582 85.3947 504.421 86.2934 500.688 86.2934C497.365 86.2934 494.442 85.5263 491.917 83.9919C489.393 82.4574 487.419 80.2764 485.995 77.4487C484.592 74.621 483.88 71.2343 483.859 67.2887V35.132H497.646V64.7899C497.668 67.771 498.455 70.1274 500.008 71.8591C501.562 73.5908 503.644 74.4566 506.255 74.4566C507.916 74.4566 509.47 74.073 510.915 73.3058C512.361 72.5167 513.526 71.3549 514.411 69.8205C515.317 68.2861 515.759 66.39 515.737 64.1323Z" fill="black"></path>
        <path d="M554.728 86.5894C551.556 86.5894 548.73 86.0304 546.249 84.9125C543.768 83.7726 541.804 82.0958 540.358 79.8818C538.934 77.646 538.222 74.8622 538.222 71.5303C538.222 68.7245 538.729 66.3681 539.744 64.4611C540.758 62.554 542.138 61.0196 543.886 59.8578C545.634 58.6961 547.619 57.8193 549.841 57.2274C552.085 56.6356 554.437 56.2191 556.897 55.9779C559.788 55.6711 562.118 55.3861 563.887 55.1231C565.656 54.8381 566.94 54.4217 567.738 53.8737C568.537 53.3257 568.936 52.5146 568.936 51.4405V51.2432C568.936 49.1608 568.289 47.5497 566.994 46.4098C565.721 45.27 563.909 44.7001 561.557 44.7001C559.076 44.7001 557.101 45.2591 555.634 46.377C554.167 47.473 553.196 48.8539 552.722 50.5199L539.97 49.4677C540.617 46.3989 541.89 43.7466 543.789 41.5107C545.688 39.253 548.137 37.5212 551.136 36.3156C554.156 35.0881 557.652 34.4744 561.622 34.4744C564.383 34.4744 567.026 34.8032 569.551 35.4608C572.097 36.1184 574.352 37.1376 576.315 38.5186C578.3 39.8996 579.864 41.6751 581.008 43.8452C582.151 45.9934 582.723 48.569 582.723 51.572V85.6358H569.648V78.6324H569.26C568.461 80.2106 567.393 81.6026 566.056 82.8082C564.718 83.9919 563.111 84.9234 561.233 85.603C559.356 86.2606 557.188 86.5894 554.728 86.5894ZM558.677 76.9226C560.705 76.9226 562.495 76.5171 564.049 75.706C565.602 74.8731 566.822 73.7552 567.706 72.3523C568.591 70.9494 569.033 69.3602 569.033 67.5847V62.2252C568.602 62.5102 568.008 62.7732 567.253 63.0143C566.519 63.2335 565.689 63.4418 564.761 63.6391C563.833 63.8144 562.905 63.9788 561.978 64.1323C561.05 64.2638 560.208 64.3843 559.453 64.4939C557.835 64.7351 556.422 65.1187 555.214 65.6447C554.005 66.1708 553.067 66.8832 552.398 67.7819C551.729 68.6587 551.395 69.7547 551.395 71.0699C551.395 72.977 552.074 74.4347 553.434 75.443C554.814 76.4294 556.562 76.9226 558.677 76.9226Z" fill="black"></path>
        <path d="M593.419 85.6358V35.132H606.786V43.9439H607.304C608.21 40.8093 609.731 38.4419 611.867 36.8417C614.003 35.2196 616.463 34.4086 619.246 34.4086C619.936 34.4086 620.681 34.4525 621.479 34.5402C622.277 34.6278 622.979 34.7483 623.583 34.9018V47.3305C622.936 47.1332 622.04 46.9579 620.897 46.8044C619.753 46.651 618.707 46.5742 617.757 46.5742C615.729 46.5742 613.917 47.0236 612.32 47.9223C610.745 48.7991 609.494 50.0267 608.566 51.6049C607.66 53.1832 607.207 55.0025 607.207 57.063V85.6358H593.419Z" fill="black"></path>
        <path d="M646.715 86.4578C642.939 86.4578 639.52 85.4715 636.456 83.4987C633.413 81.5039 630.997 78.5776 629.206 74.7197C627.437 70.8398 626.552 66.0831 626.552 60.4497C626.552 54.6628 627.469 49.8513 629.303 46.0153C631.137 42.1574 633.575 39.2749 636.617 37.3678C639.681 35.4388 643.036 34.4744 646.683 34.4744C649.466 34.4744 651.785 34.9566 653.641 35.9211C655.518 36.8637 657.028 38.0474 658.172 39.4722C659.337 40.875 660.222 42.256 660.826 43.6151H661.247V18.2974H675.001V85.6358H661.408V77.5473H660.826C660.179 78.9502 659.262 80.3421 658.075 81.7231C656.91 83.0822 655.389 84.211 653.512 85.1098C651.656 86.0085 649.39 86.4578 646.715 86.4578ZM651.084 75.3115C653.307 75.3115 655.184 74.6977 656.716 73.4702C658.269 72.2207 659.456 70.4781 660.276 68.2423C661.117 66.0064 661.538 63.387 661.538 60.3839C661.538 57.3809 661.128 54.7723 660.308 52.5584C659.488 50.3445 658.301 48.6347 656.748 47.4291C655.195 46.2235 653.307 45.6207 651.084 45.6207C648.819 45.6207 646.909 46.2455 645.356 47.4949C643.802 48.7443 642.626 50.4761 641.828 52.69C641.03 54.9039 640.631 57.4686 640.631 60.3839C640.631 63.3212 641.03 65.9187 641.828 68.1765C642.648 70.4123 643.824 72.1659 645.356 73.4373C646.909 74.6867 648.819 75.3115 651.084 75.3115Z" fill="black"></path>
        <path d="M214.445 130.222H209.693L207.345 123.576H197.076L194.818 130.222H190.085L199.862 104.113H204.741L214.445 130.222ZM206.198 120.044L202.574 109.63C202.465 109.29 202.35 108.744 202.229 107.991H202.156C202.046 108.683 201.925 109.229 201.792 109.63L198.205 120.044H206.198Z" fill="black"></path>
        <path d="M222.12 130.222H217.659V104.113H222.12V130.222Z" fill="black"></path>
        <path d="M258.261 130.222H253.2L249.03 123.23C248.654 122.587 248.284 122.041 247.92 121.592C247.568 121.131 247.204 120.754 246.827 120.463C246.463 120.172 246.063 119.959 245.626 119.826C245.189 119.692 244.697 119.625 244.151 119.625H242.403V130.222H238.088V104.113H246.682C247.908 104.113 249.036 104.259 250.068 104.55C251.1 104.841 251.998 105.284 252.763 105.879C253.527 106.462 254.122 107.196 254.547 108.082C254.984 108.956 255.202 109.982 255.202 111.159C255.202 112.082 255.063 112.931 254.784 113.708C254.517 114.473 254.128 115.159 253.618 115.766C253.121 116.36 252.514 116.87 251.798 117.295C251.094 117.72 250.299 118.048 249.413 118.278V118.351C249.886 118.618 250.299 118.915 250.651 119.243C251.003 119.559 251.337 119.886 251.652 120.226C251.968 120.566 252.277 120.955 252.581 121.392C252.896 121.816 253.242 122.314 253.618 122.885L258.261 130.222ZM242.403 107.627V116.111H246.008C246.676 116.111 247.289 116.008 247.847 115.802C248.417 115.596 248.909 115.298 249.322 114.91C249.734 114.521 250.056 114.048 250.287 113.49C250.517 112.931 250.633 112.306 250.633 111.614C250.633 110.364 250.238 109.387 249.449 108.683C248.66 107.979 247.525 107.627 246.044 107.627H242.403Z" fill="black"></path>
        <path d="M275.276 122.047H262.568C262.616 123.771 263.144 125.1 264.151 126.034C265.171 126.969 266.567 127.436 268.339 127.436C270.33 127.436 272.156 126.842 273.819 125.652V129.057C272.12 130.125 269.875 130.659 267.083 130.659C264.34 130.659 262.185 129.815 260.619 128.128C259.066 126.429 258.289 124.044 258.289 120.973C258.289 118.072 259.145 115.711 260.856 113.89C262.58 112.057 264.716 111.141 267.265 111.141C269.814 111.141 271.786 111.96 273.182 113.599C274.578 115.238 275.276 117.513 275.276 120.427V122.047ZM271.198 119.061C271.185 117.544 270.827 116.366 270.123 115.529C269.419 114.679 268.448 114.254 267.21 114.254C265.996 114.254 264.965 114.697 264.115 115.583C263.278 116.47 262.762 117.629 262.568 119.061H271.198Z" fill="black"></path>
        <path d="M295.877 130.222H291.653V127.054H291.58C290.221 129.457 288.127 130.659 285.299 130.659C283.005 130.659 281.166 129.827 279.782 128.165C278.411 126.49 277.725 124.214 277.725 121.337C277.725 118.254 278.484 115.784 280.001 113.927C281.53 112.07 283.563 111.141 286.1 111.141C288.613 111.141 290.44 112.148 291.58 114.163H291.653V102.62H295.877V130.222ZM291.708 121.701V119.261C291.708 117.938 291.277 116.816 290.415 115.893C289.553 114.971 288.455 114.509 287.12 114.509C285.542 114.509 284.298 115.098 283.387 116.275C282.489 117.453 282.04 119.085 282.04 121.173C282.04 123.067 282.471 124.566 283.333 125.67C284.207 126.763 285.378 127.309 286.847 127.309C288.291 127.309 289.462 126.781 290.361 125.725C291.259 124.657 291.708 123.315 291.708 121.701Z" fill="black"></path>
        <path d="M315.332 130.222H311.235V127.309H311.162C309.876 129.542 307.988 130.659 305.5 130.659C303.667 130.659 302.229 130.161 301.185 129.166C300.153 128.171 299.637 126.854 299.637 125.215C299.637 121.695 301.664 119.644 305.718 119.061L311.253 118.278C311.253 115.62 309.991 114.291 307.466 114.291C305.245 114.291 303.242 115.055 301.458 116.585V112.889C303.424 111.724 305.694 111.141 308.267 111.141C312.977 111.141 315.332 113.459 315.332 118.096V130.222ZM311.253 121.064L307.339 121.61C306.125 121.768 305.209 122.065 304.59 122.502C303.983 122.927 303.679 123.68 303.679 124.76C303.679 125.549 303.958 126.198 304.517 126.708C305.087 127.206 305.846 127.454 306.793 127.454C308.079 127.454 309.141 127.005 309.979 126.107C310.828 125.197 311.253 124.056 311.253 122.684V121.064Z" fill="black"></path>
        <path d="M333.475 129.366C331.982 130.228 330.216 130.659 328.177 130.659C325.41 130.659 323.176 129.797 321.477 128.074C319.778 126.338 318.928 124.092 318.928 121.337C318.928 118.266 319.838 115.802 321.659 113.945C323.492 112.076 325.938 111.141 328.996 111.141C330.696 111.141 332.195 111.438 333.493 112.033V115.966C332.195 114.995 330.811 114.509 329.342 114.509C327.558 114.509 326.095 115.116 324.954 116.33C323.813 117.532 323.243 119.11 323.243 121.064C323.243 122.994 323.777 124.517 324.845 125.634C325.925 126.75 327.37 127.309 329.178 127.309C330.696 127.309 332.128 126.769 333.475 125.688V129.366Z" fill="black"></path>
        <path d="M347.14 130.022C346.314 130.434 345.228 130.641 343.881 130.641C340.264 130.641 338.455 128.905 338.455 125.433V114.892H335.342V111.578H338.455V107.263L342.679 106.061V111.578H347.14V114.892H342.679V124.214C342.679 125.318 342.879 126.107 343.28 126.581C343.68 127.054 344.348 127.291 345.283 127.291C345.999 127.291 346.618 127.084 347.14 126.672V130.022Z" fill="black"></path>
        <path d="M352.538 107.663C351.847 107.663 351.252 107.439 350.754 106.99C350.269 106.541 350.026 105.97 350.026 105.278C350.026 104.586 350.269 104.01 350.754 103.549C351.252 103.087 351.847 102.857 352.538 102.857C353.255 102.857 353.861 103.087 354.359 103.549C354.857 104.01 355.106 104.586 355.106 105.278C355.106 105.934 354.857 106.498 354.359 106.972C353.861 107.433 353.255 107.663 352.538 107.663ZM354.632 130.222H350.408V111.578H354.632V130.222Z" fill="black"></path>
        <path d="M368.06 130.659C365.183 130.659 362.883 129.791 361.16 128.055C359.448 126.307 358.593 123.995 358.593 121.118C358.593 117.987 359.485 115.541 361.269 113.781C363.065 112.021 365.481 111.141 368.515 111.141C371.428 111.141 373.698 111.997 375.325 113.708C376.951 115.42 377.764 117.793 377.764 120.827C377.764 123.801 376.884 126.186 375.124 127.982C373.377 129.767 371.022 130.659 368.06 130.659ZM368.26 114.509C366.61 114.509 365.305 115.086 364.346 116.239C363.387 117.392 362.908 118.982 362.908 121.009C362.908 122.963 363.393 124.505 364.364 125.634C365.335 126.75 366.634 127.309 368.26 127.309C369.923 127.309 371.198 126.757 372.084 125.652C372.982 124.547 373.431 122.976 373.431 120.936C373.431 118.885 372.982 117.301 372.084 116.184C371.198 115.068 369.923 114.509 368.26 114.509Z" fill="black"></path>
        <path d="M398.311 130.222H394.087V119.716C394.087 116.233 392.855 114.491 390.391 114.491C389.105 114.491 388.043 114.977 387.205 115.948C386.367 116.907 385.949 118.12 385.949 119.589V130.222H381.707V111.578H385.949V114.673H386.022C387.417 112.318 389.432 111.141 392.066 111.141C394.093 111.141 395.641 111.803 396.709 113.126C397.777 114.436 398.311 116.336 398.311 118.824V130.222Z" fill="black"></path>
        <path d="M431.357 130.24L428.972 127.709C428.45 128.171 427.868 128.589 427.224 128.966C426.593 129.33 425.92 129.639 425.203 129.894C424.499 130.149 423.765 130.343 423 130.477C422.236 130.61 421.465 130.677 420.688 130.677C419.377 130.677 418.194 130.507 417.138 130.167C416.082 129.827 415.177 129.348 414.425 128.729C413.685 128.098 413.108 127.345 412.695 126.471C412.295 125.597 412.094 124.626 412.094 123.558C412.094 120.56 414.085 118.035 418.066 115.984C416.233 113.714 415.317 111.699 415.317 109.939C415.317 109.029 415.493 108.191 415.845 107.427C416.209 106.662 416.713 106.007 417.356 105.46C418 104.902 418.764 104.465 419.65 104.149C420.549 103.834 421.526 103.676 422.582 103.676C423.589 103.676 424.499 103.816 425.313 104.095C426.138 104.374 426.842 104.762 427.425 105.26C428.007 105.758 428.456 106.353 428.772 107.044C429.088 107.724 429.245 108.465 429.245 109.266C429.245 110.055 429.142 110.771 428.936 111.414C428.742 112.045 428.42 112.64 427.971 113.198C427.534 113.757 426.951 114.291 426.223 114.801C425.507 115.31 424.627 115.82 423.583 116.33C424.542 117.362 425.507 118.387 426.478 119.407C427.461 120.427 428.456 121.452 429.464 122.484C429.719 122.096 429.949 121.659 430.156 121.173C430.374 120.688 430.556 120.178 430.702 119.644C430.86 119.11 430.981 118.557 431.066 117.987C431.151 117.416 431.193 116.858 431.193 116.312H434.889C434.889 119.65 433.833 122.569 431.721 125.069C432.268 125.652 432.953 126.368 433.779 127.218C434.616 128.067 435.599 129.075 436.728 130.24H431.357ZM425.44 109.593C425.44 109.193 425.361 108.817 425.203 108.465C425.058 108.113 424.857 107.809 424.603 107.554C424.348 107.287 424.05 107.081 423.71 106.935C423.371 106.777 423.006 106.698 422.618 106.698C422.108 106.698 421.641 106.777 421.216 106.935C420.803 107.081 420.445 107.299 420.142 107.591C419.851 107.87 419.62 108.204 419.45 108.592C419.292 108.98 419.213 109.411 419.213 109.885C419.213 111.001 420.008 112.446 421.598 114.218C424.16 112.907 425.44 111.366 425.44 109.593ZM426.769 125.342C425.349 123.874 423.128 121.507 420.105 118.242C418.77 118.934 417.805 119.674 417.211 120.463C416.628 121.252 416.337 122.174 416.337 123.23C416.337 123.874 416.452 124.456 416.683 124.978C416.925 125.488 417.253 125.925 417.666 126.289C418.078 126.653 418.564 126.933 419.122 127.127C419.693 127.321 420.306 127.418 420.961 127.418C423.243 127.418 425.179 126.726 426.769 125.342Z" fill="black"></path>
        <path d="M454.007 120.754V130.222H449.692V104.113H457.612C460.61 104.113 462.935 104.811 464.586 106.207C466.236 107.603 467.062 109.569 467.062 112.106C467.062 114.643 466.2 116.718 464.476 118.333C462.753 119.947 460.422 120.754 457.485 120.754H454.007ZM454.007 107.682V117.222H456.811C458.668 117.222 460.082 116.791 461.053 115.929C462.024 115.068 462.51 113.854 462.51 112.288C462.51 109.217 460.726 107.682 457.157 107.682H454.007Z" fill="black"></path>
        <path d="M481.473 115.602C480.963 115.201 480.229 115.001 479.27 115.001C478.019 115.001 476.976 115.565 476.138 116.694C475.301 117.823 474.882 119.358 474.882 121.301V130.222H470.658V111.578H474.882V115.42H474.955C475.367 114.109 475.999 113.089 476.848 112.361C477.71 111.62 478.669 111.25 479.725 111.25C480.49 111.25 481.072 111.366 481.473 111.596V115.602Z" fill="black"></path>
        <path d="M486.216 107.663C485.524 107.663 484.929 107.439 484.432 106.99C483.946 106.541 483.703 105.97 483.703 105.278C483.703 104.586 483.946 104.01 484.432 103.549C484.929 103.087 485.524 102.857 486.216 102.857C486.932 102.857 487.539 103.087 488.037 103.549C488.534 104.01 488.783 104.586 488.783 105.278C488.783 105.934 488.534 106.498 488.037 106.972C487.539 107.433 486.932 107.663 486.216 107.663ZM488.31 130.222H484.086V111.578H488.31V130.222Z" fill="black"></path>
        <path d="M509.53 111.578L502.32 130.222H497.75L490.886 111.578H495.475L499.607 124.614C499.923 125.573 500.117 126.411 500.19 127.127H500.245C500.354 126.229 500.524 125.415 500.754 124.687L505.088 111.578H509.53Z" fill="black"></path>
        <path d="M525.726 130.222H521.629V127.309H521.556C520.27 129.542 518.382 130.659 515.894 130.659C514.061 130.659 512.623 130.161 511.579 129.166C510.547 128.171 510.031 126.854 510.031 125.215C510.031 121.695 512.058 119.644 516.112 119.061L521.647 118.278C521.647 115.62 520.385 114.291 517.86 114.291C515.639 114.291 513.636 115.055 511.852 116.585V112.889C513.818 111.724 516.088 111.141 518.661 111.141C523.371 111.141 525.726 113.459 525.726 118.096V130.222ZM521.647 121.064L517.733 121.61C516.519 121.768 515.603 122.065 514.984 122.502C514.377 122.927 514.073 123.68 514.073 124.76C514.073 125.549 514.352 126.198 514.911 126.708C515.481 127.206 516.24 127.454 517.187 127.454C518.473 127.454 519.535 127.005 520.373 126.107C521.222 125.197 521.647 124.056 521.647 122.684V121.064Z" fill="black"></path>
        <path d="M543.869 129.366C542.376 130.228 540.61 130.659 538.571 130.659C535.803 130.659 533.57 129.797 531.871 128.074C530.171 126.338 529.322 124.092 529.322 121.337C529.322 118.266 530.232 115.802 532.053 113.945C533.886 112.076 536.331 111.141 539.39 111.141C541.089 111.141 542.588 111.438 543.887 112.033V115.966C542.588 114.995 541.205 114.509 539.736 114.509C537.952 114.509 536.489 115.116 535.348 116.33C534.207 117.532 533.637 119.11 533.637 121.064C533.637 122.994 534.171 124.517 535.239 125.634C536.319 126.75 537.764 127.309 539.572 127.309C541.089 127.309 542.522 126.769 543.869 125.688V129.366Z" fill="black"></path>
        <path d="M563.851 111.578L555.44 133.208C553.692 137.068 551.24 138.998 548.084 138.998C547.198 138.998 546.458 138.919 545.863 138.761V135.247C546.531 135.466 547.138 135.575 547.684 135.575C549.262 135.575 550.439 134.798 551.216 133.244L552.472 130.186L545.062 111.578H549.741L554.184 125.124C554.232 125.294 554.341 125.743 554.511 126.471H554.602C554.663 126.192 554.772 125.755 554.93 125.16L559.591 111.578H563.851Z" fill="black"></path>
        <path d="M586.738 106.061C586.168 105.733 585.518 105.57 584.79 105.57C582.739 105.57 581.713 106.729 581.713 109.047V111.578H586.046V114.892H581.731V130.222H577.507V114.892H574.321V111.578H577.507V108.556C577.507 106.589 578.151 105.042 579.437 103.913C580.724 102.772 582.332 102.201 584.262 102.201C585.306 102.201 586.131 102.317 586.738 102.547V106.061Z" fill="black"></path>
        <path d="M596.943 130.659C594.067 130.659 591.767 129.791 590.043 128.055C588.332 126.307 587.476 123.995 587.476 121.118C587.476 117.987 588.368 115.541 590.152 113.781C591.949 112.021 594.364 111.141 597.399 111.141C600.312 111.141 602.582 111.997 604.208 113.708C605.834 115.42 606.648 117.793 606.648 120.827C606.648 123.801 605.768 126.186 604.008 127.982C602.26 129.767 599.905 130.659 596.943 130.659ZM597.144 114.509C595.493 114.509 594.188 115.086 593.229 116.239C592.27 117.392 591.791 118.982 591.791 121.009C591.791 122.963 592.276 124.505 593.247 125.634C594.219 126.75 595.517 127.309 597.144 127.309C598.807 127.309 600.081 126.757 600.967 125.652C601.865 124.547 602.314 122.976 602.314 120.936C602.314 118.885 601.865 117.301 600.967 116.184C600.081 115.068 598.807 114.509 597.144 114.509Z" fill="black"></path>
        <path d="M621.405 115.602C620.895 115.201 620.161 115.001 619.202 115.001C617.951 115.001 616.908 115.565 616.07 116.694C615.233 117.823 614.814 119.358 614.814 121.301V130.222H610.59V111.578H614.814V115.42H614.887C615.299 114.109 615.931 113.089 616.78 112.361C617.642 111.62 618.601 111.25 619.657 111.25C620.422 111.25 621.004 111.366 621.405 111.596V115.602Z" fill="black"></path>
        <path d="M655.835 130.222H651.083L648.734 123.576H638.465L636.208 130.222H631.474L641.251 104.113H646.13L655.835 130.222ZM647.587 120.044L643.964 109.63C643.854 109.29 643.739 108.744 643.618 107.991H643.545C643.436 108.683 643.314 109.229 643.181 109.63L639.594 120.044H647.587Z" fill="black"></path>
        <path d="M662.835 130.222H658.593V102.62H662.835V130.222Z" fill="black"></path>
        <path d="M672.221 130.222H667.979V102.62H672.221V130.222Z" fill="black"></path>

</svg>
